<?xml version="1.0" encoding="UTF-8"?>
<svg id="tabela-img" xmlns="http://www.w3.org/2000/svg" xmlns:xlink="http://www.w3.org/1999/xlink" viewBox="0 0 1430.4 855.7">
  <defs>
    <style>
      .cls-1 {
        fill: none;
      }

      .cls-1, .cls-2 {
        stroke: #000;
        stroke-miterlimit: 10;
      }

      .cls-3 {
        fill: #fff;
      }

      .cls-4 {
        fill: #3ea636;
      }

      .cls-2 {
        fill: #3ba438;
      }
    </style>
  </defs>
  <g id="LinkSubFamilia">
    <g id="_2KES" data-name="2KES">
      <rect id="_2KES-2" data-name="2KES" class="cls-3" x="90.07" y="721.77" width="34.43" height="133.92"/>
      <g id="_2KES-3" data-name="2KES">
        <path d="M102.83,831.3c.65,0,1.38.22,2.17.67l9.94,5.69v-6.34h2.71v10.04h-1.92l-12.33-7.01h-3.82v3.77h3.85v3.03h-4.6c-1.25,0-1.88-.63-1.88-1.89v-6.07c0-1.26.63-1.89,1.88-1.89h4.01Z"/>
        <path d="M117.64,818.64v3.41l-9.23,3.93h9.23v3.1h-20.7v-3.1h8.76l-8.76-3.44v-3.39h.15l9.83,4.21,10.73-4.72Z"/>
        <path d="M117.64,808.81v8.59h-20.7v-8.51h2.74v5.41h6.05v-4.66h2.69v4.66h6.5v-5.49h2.74Z"/>
        <path d="M115.75,796.77c1.26,0,1.89.63,1.89,1.88v6.23c0,1.24-.63,1.87-1.89,1.87h-4.93v-3.1h4.22v-3.78h-4.06l-5.87,6.2c-.43.45-.98.67-1.65.67h-4.6c-1.27,0-1.91-.62-1.91-1.87v-6.23c0-1.25.63-1.88,1.88-1.88h4.63v3.1h-3.9v3.78h3.74l5.85-6.2c.42-.45.98-.67,1.68-.67h4.93Z"/>
      </g>
    </g>
    <g id="_2JES" data-name="2JES">
      <rect id="_2JES-2" data-name="2JES" class="cls-3" x="139.2" y="721.77" width="34.43" height="133.92"/>
      <g id="_2JES-3" data-name="2JES">
        <path d="M151.95,831.3c.65,0,1.38.22,2.17.67l9.94,5.69v-6.34h2.71v10.04h-1.92l-12.33-7.01h-3.82v3.77h3.85v3.03h-4.6c-1.25,0-1.88-.63-1.88-1.89v-6.07c0-1.26.63-1.89,1.88-1.89h4.01Z"/>
        <path d="M164.88,819.77c1.26,0,1.89.64,1.89,1.91v5.87c0,1.24-.63,1.87-1.89,1.87h-5.09v-3.08h4.33v-3.47h-18.04v-3.1h18.81Z"/>
        <path d="M166.77,808.73v8.59h-20.7v-8.51h2.74v5.41h6.05v-4.66h2.69v4.66h6.5v-5.49h2.74Z"/>
        <path d="M164.88,796.69c1.26,0,1.89.63,1.89,1.88v6.23c0,1.24-.63,1.87-1.89,1.87h-4.93v-3.1h4.22v-3.78h-4.06l-5.87,6.2c-.43.45-.98.67-1.65.67h-4.6c-1.27,0-1.91-.62-1.91-1.87v-6.23c0-1.25.63-1.88,1.88-1.88h4.63v3.1h-3.9v3.78h3.74l5.85-6.2c.42-.45.98-.67,1.68-.67h4.93Z"/>
      </g>
    </g>
    <g id="_2HES" data-name="2HES">
      <rect id="_2HES-2" data-name="2HES" class="cls-3" x="190.19" y="721.77" width="34.43" height="133.92"/>
      <g id="_2HES-3" data-name="2HES">
        <path d="M202.94,831.3c.65,0,1.38.22,2.17.67l9.94,5.69v-6.34h2.71v10.04h-1.92l-12.33-7.01h-3.82v3.77h3.85v3.03h-4.6c-1.25,0-1.88-.63-1.88-1.89v-6.07c0-1.26.63-1.89,1.88-1.89h4.01Z"/>
        <path d="M217.76,818.66v3.12h-9.29v4.19h9.29v3.1h-20.7v-3.1h8.53v-4.19h-8.53v-3.12h20.7Z"/>
        <path d="M217.76,807.62v8.59h-20.7v-8.51h2.74v5.41h6.05v-4.66h2.69v4.66h6.5v-5.49h2.74Z"/>
        <path d="M215.87,795.58c1.26,0,1.89.63,1.89,1.88v6.23c0,1.24-.63,1.87-1.89,1.87h-4.93v-3.1h4.22v-3.78h-4.06l-5.87,6.2c-.43.45-.98.67-1.65.67h-4.6c-1.27,0-1.91-.62-1.91-1.87v-6.23c0-1.25.63-1.88,1.88-1.88h4.63v3.1h-3.9v3.78h3.74l5.85-6.2c.42-.45.98-.67,1.68-.67h4.93Z"/>
      </g>
    </g>
    <g id="_2GES" data-name="2GES">
      <rect id="_2GES-2" data-name="2GES" class="cls-3" x="240.15" y="721.77" width="34.43" height="133.92"/>
      <g id="_2GES-3" data-name="2GES">
        <path d="M252.9,831.3c.65,0,1.38.22,2.17.67l9.94,5.69v-6.34h2.71v10.04h-1.92l-12.33-7.01h-3.82v3.77h3.85v3.03h-4.6c-1.25,0-1.88-.63-1.88-1.89v-6.07c0-1.26.63-1.89,1.88-1.89h4.01Z"/>
        <path d="M265.83,818.83c1.26,0,1.89.63,1.89,1.89v6.51c0,1.23-.63,1.84-1.89,1.84h-16.91c-1.27,0-1.91-.63-1.91-1.88v-6.47c0-1.26.64-1.89,1.91-1.89h4.42v3.11h-3.66v4.04h15.39v-4.04h-5.79v2.3h-2.63v-5.41h9.19Z"/>
        <path d="M267.72,807.77v8.59h-20.7v-8.51h2.74v5.41h6.05v-4.66h2.69v4.66h6.5v-5.49h2.74Z"/>
        <path d="M265.83,795.74c1.26,0,1.89.63,1.89,1.88v6.23c0,1.24-.63,1.87-1.89,1.87h-4.93v-3.1h4.22v-3.78h-4.06l-5.87,6.2c-.43.45-.98.67-1.65.67h-4.6c-1.27,0-1.91-.62-1.91-1.87v-6.23c0-1.25.63-1.88,1.88-1.88h4.63v3.1h-3.9v3.78h3.74l5.85-6.2c.42-.45.98-.67,1.68-.67h4.93Z"/>
      </g>
    </g>
    <g id="_2FES" data-name="2FES">
      <rect id="_2FES-2" data-name="2FES" class="cls-3" x="289.72" y="721.77" width="34.43" height="133.92"/>
      <g id="_2FES-3" data-name="2FES">
        <path d="M302.47,831.3c.65,0,1.38.22,2.17.67l9.94,5.69v-6.34h2.71v10.04h-1.92l-12.33-7.01h-3.82v3.77h3.85v3.03h-4.6c-1.25,0-1.88-.63-1.88-1.89v-6.07c0-1.26.63-1.89,1.88-1.89h4.01Z"/>
        <path d="M299.32,820.62v5.36h6.12v-4.58h2.69v4.58h9.15v3.1h-20.7v-8.45h2.74Z"/>
        <path d="M317.29,810.28v8.59h-20.7v-8.51h2.74v5.41h6.05v-4.66h2.69v4.66h6.5v-5.49h2.74Z"/>
        <path d="M315.4,798.24c1.26,0,1.89.63,1.89,1.88v6.23c0,1.24-.63,1.87-1.89,1.87h-4.93v-3.1h4.22v-3.78h-4.06l-5.87,6.2c-.43.45-.98.67-1.65.67h-4.6c-1.27,0-1.91-.62-1.91-1.87v-6.23c0-1.25.63-1.88,1.88-1.88h4.63v3.1h-3.9v3.78h3.74l5.85-6.2c.42-.45.98-.67,1.68-.67h4.93Z"/>
      </g>
    </g>
    <g id="_2EES" data-name="2EES">
      <rect id="_2EES-2" data-name="2EES" class="cls-3" x="341.08" y="721.77" width="34.43" height="133.92"/>
      <path d="M353.84,831.3c.65,0,1.38.22,2.17.67l9.94,5.69v-6.34h2.71v10.04h-1.92l-12.33-7.01h-3.82v3.77h3.85v3.03h-4.6c-1.25,0-1.88-.63-1.88-1.89v-6.07c0-1.26.63-1.89,1.88-1.89h4.01Z"/>
      <path d="M368.65,820.49v8.59h-20.7v-8.51h2.74v5.41h6.05v-4.66h2.69v4.66h6.5v-5.49h2.74Z"/>
      <path d="M368.65,809.79v8.59h-20.7v-8.51h2.74v5.41h6.05v-4.66h2.69v4.66h6.5v-5.49h2.74Z"/>
      <path d="M366.76,797.75c1.26,0,1.89.63,1.89,1.88v6.23c0,1.24-.63,1.87-1.89,1.87h-4.93v-3.1h4.22v-3.78h-4.06l-5.87,6.2c-.43.45-.98.67-1.65.67h-4.6c-1.27,0-1.91-.62-1.91-1.87v-6.23c0-1.25.63-1.88,1.88-1.88h4.63v3.1h-3.9v3.78h3.74l5.85-6.2c.42-.45.98-.67,1.68-.67h4.93Z"/>
    </g>
    <g id="_2DES" data-name="2DES">
      <rect id="_2DES-2" data-name="2DES" class="cls-3" x="390.34" y="721.77" width="34.43" height="133.92"/>
      <g id="_2DES-3" data-name="2DES">
        <path d="M403.09,831.3c.65,0,1.38.22,2.17.67l9.94,5.69v-6.34h2.71v10.04h-1.92l-12.33-7.01h-3.82v3.77h3.85v3.03h-4.6c-1.25,0-1.88-.63-1.88-1.89v-6.07c0-1.26.63-1.89,1.88-1.89h4.01Z"/>
        <path d="M414.01,818.75c1.22,0,2.17.36,2.86,1.08.69.72,1.04,1.7,1.04,2.92v6.31h-20.7v-6.31c0-1.23.35-2.2,1.05-2.92.7-.72,1.66-1.08,2.88-1.08h12.87ZM413.49,821.86h-11.89c-1.16,0-1.73.6-1.73,1.81v2.3h15.39v-2.22c0-1.26-.59-1.89-1.76-1.89Z"/>
        <path d="M417.91,807.77v8.59h-20.7v-8.51h2.74v5.41h6.05v-4.66h2.69v4.66h6.5v-5.49h2.74Z"/>
        <path d="M416.02,795.74c1.26,0,1.89.63,1.89,1.88v6.23c0,1.24-.63,1.87-1.89,1.87h-4.93v-3.1h4.22v-3.78h-4.06l-5.87,6.2c-.43.45-.98.67-1.65.67h-4.6c-1.27,0-1.91-.62-1.91-1.87v-6.23c0-1.25.63-1.88,1.88-1.88h4.63v3.1h-3.9v3.78h3.74l5.85-6.2c.42-.45.98-.67,1.68-.67h4.93Z"/>
      </g>
    </g>
    <g id="_2CES" data-name="2CES">
      <rect id="_2CES-2" data-name="2CES" class="cls-3" x="440.67" y="721.77" width="34.43" height="133.92"/>
      <g id="_2CES-3" data-name="2CES">
        <path d="M453.42,831.3c.65,0,1.38.22,2.17.67l9.94,5.69v-6.34h2.71v10.04h-1.92l-12.33-7.01h-3.82v3.77h3.85v3.03h-4.6c-1.25,0-1.88-.63-1.88-1.89v-6.07c0-1.26.63-1.89,1.88-1.89h4.01Z"/>
        <path d="M466.35,818.89c1.26,0,1.89.63,1.89,1.89v6.46c0,1.23-.63,1.84-1.89,1.84h-16.91c-1.27,0-1.91-.61-1.91-1.84v-6.46c0-1.26.64-1.89,1.91-1.89h4.84v3.08h-4.09v4.01h15.39v-4.01h-4.35v-3.08h5.12Z"/>
        <path d="M468.24,807.87v8.59h-20.7v-8.51h2.74v5.41h6.05v-4.66h2.69v4.66h6.5v-5.49h2.74Z"/>
        <path d="M466.35,795.83c1.26,0,1.89.63,1.89,1.88v6.23c0,1.24-.63,1.87-1.89,1.87h-4.93v-3.1h4.22v-3.78h-4.06l-5.87,6.2c-.43.45-.98.67-1.65.67h-4.6c-1.27,0-1.91-.62-1.91-1.87v-6.23c0-1.25.63-1.88,1.88-1.88h4.63v3.1h-3.9v3.78h3.74l5.85-6.2c.42-.45.98-.67,1.68-.67h4.93Z"/>
      </g>
    </g>
    <a href="C3-4FES_4FC/index.html"><g id="_4FES" data-name="4FES">
      <rect id="_4FES-2" data-name="4FES" class="cls-3" x="492.33" y="721.77" width="34.43" height="133.92"/>
      <g id="_4FES-3" data-name="4FES">
        <path d="M513.62,830.04v1.57h3.9v2.95h-3.9v6.8h-1.84l-14.96-5.15v-3.15h.12l14.05,4.83v-3.33h-6.23v-2.95h6.23v-1.57h2.63Z"/>
        <path d="M499.55,819.8v5.36h6.12v-4.58h2.69v4.58h9.15v3.1h-20.7v-8.45h2.74Z"/>
        <path d="M517.52,809.46v8.59h-20.7v-8.51h2.74v5.41h6.05v-4.66h2.69v4.66h6.5v-5.49h2.74Z"/>
        <path d="M515.63,797.42c1.26,0,1.89.63,1.89,1.88v6.23c0,1.24-.63,1.87-1.89,1.87h-4.93v-3.1h4.22v-3.78h-4.06l-5.87,6.2c-.43.45-.98.67-1.65.67h-4.6c-1.27,0-1.91-.62-1.91-1.87v-6.23c0-1.25.63-1.88,1.88-1.88h4.63v3.1h-3.9v3.78h3.74l5.85-6.2c.42-.45.98-.67,1.68-.67h4.93Z"/>
        <path d="M522.28,786.28v2.99h-25.47v-2.99h25.47Z"/>
        <path d="M513.62,767.56v1.57h3.9v2.95h-3.9v6.8h-1.84l-14.96-5.15v-3.15h.12l14.05,4.83v-3.33h-6.23v-2.95h6.23v-1.57h2.63Z"/>
        <path d="M499.55,757.32v5.36h6.12v-4.58h2.69v4.58h9.15v3.1h-20.7v-8.45h2.74Z"/>
        <path d="M515.63,745.37c1.26,0,1.89.63,1.89,1.89v6.46c0,1.23-.63,1.84-1.89,1.84h-16.91c-1.27,0-1.91-.61-1.91-1.84v-6.46c0-1.26.64-1.89,1.91-1.89h4.84v3.08h-4.09v4.01h15.39v-4.01h-4.35v-3.08h5.12Z"/>
      </g>
    </g></a>
    <a href="C3-4EES_4EC/index.html"><g id="_4EES" data-name="4EES">
      <rect id="_4EES-2" data-name="4EES" class="cls-3" x="541.96" y="721.77" width="34.43" height="133.92"/>
      <g id="_4EES-3" data-name="4EES">
        <path d="M563.25,830.04v1.57h3.9v2.95h-3.9v6.8h-1.84l-14.96-5.15v-3.15h.12l14.05,4.83v-3.33h-6.23v-2.95h6.23v-1.57h2.63Z"/>
        <path d="M567.15,819.67v8.59h-20.7v-8.51h2.74v5.41h6.05v-4.66h2.69v4.66h6.5v-5.49h2.74Z"/>
        <path d="M567.15,808.97v8.59h-20.7v-8.51h2.74v5.41h6.05v-4.66h2.69v4.66h6.5v-5.49h2.74Z"/>
        <path d="M565.26,796.93c1.26,0,1.89.63,1.89,1.88v6.23c0,1.24-.63,1.87-1.89,1.87h-4.93v-3.1h4.22v-3.78h-4.06l-5.87,6.2c-.43.45-.98.67-1.65.67h-4.6c-1.27,0-1.91-.62-1.91-1.87v-6.23c0-1.25.63-1.88,1.88-1.88h4.63v3.1h-3.9v3.78h3.74l5.85-6.2c.42-.45.98-.67,1.68-.67h4.93Z"/>
        <path d="M571.91,785.79v2.99h-25.47v-2.99h25.47Z"/>
        <path d="M563.25,767.07v1.57h3.9v2.95h-3.9v6.8h-1.84l-14.96-5.15v-3.15h.12l14.05,4.83v-3.33h-6.23v-2.95h6.23v-1.57h2.63Z"/>
        <path d="M567.15,756.7v8.59h-20.7v-8.51h2.74v5.41h6.05v-4.66h2.69v4.66h6.5v-5.49h2.74Z"/>
        <path d="M565.26,744.39c1.26,0,1.89.63,1.89,1.89v6.46c0,1.23-.63,1.84-1.89,1.84h-16.91c-1.27,0-1.91-.61-1.91-1.84v-6.46c0-1.26.64-1.89,1.91-1.89h4.84v3.08h-4.09v4.01h15.39v-4.01h-4.35v-3.08h5.12Z"/>
      </g>
    </g></a>
    <a href="C3-4DES_4DC/index.html"><g id="_4DES" data-name="4DES">
      <rect id="_4DES-2" data-name="4DES" class="cls-3" x="592.95" y="721.77" width="34.43" height="133.92"/>
      <g id="_4DES-3" data-name="4DES">
        <path d="M614.24,830.04v1.57h3.9v2.95h-3.9v6.8h-1.84l-14.96-5.15v-3.15h.12l14.05,4.83v-3.33h-6.23v-2.95h6.23v-1.57h2.63Z"/>
        <path d="M614.24,817.93c1.22,0,2.17.36,2.86,1.08.69.72,1.04,1.7,1.04,2.92v6.31h-20.7v-6.31c0-1.23.35-2.2,1.05-2.92.7-.72,1.66-1.08,2.88-1.08h12.87ZM613.72,821.04h-11.89c-1.16,0-1.73.6-1.73,1.81v2.3h15.39v-2.22c0-1.26-.59-1.89-1.76-1.89Z"/>
        <path d="M618.14,806.95v8.59h-20.7v-8.51h2.74v5.41h6.05v-4.66h2.69v4.66h6.5v-5.49h2.74Z"/>
        <path d="M616.25,794.92c1.26,0,1.89.63,1.89,1.88v6.23c0,1.24-.63,1.87-1.89,1.87h-4.93v-3.1h4.22v-3.78h-4.06l-5.87,6.2c-.43.45-.98.67-1.65.67h-4.6c-1.27,0-1.91-.62-1.91-1.87v-6.23c0-1.25.63-1.88,1.88-1.88h4.63v3.1h-3.9v3.78h3.74l5.85-6.2c.42-.45.98-.67,1.68-.67h4.93Z"/>
        <path d="M622.9,783.78v2.99h-25.47v-2.99h25.47Z"/>
        <path d="M614.24,765.06v1.57h3.9v2.95h-3.9v6.8h-1.84l-14.96-5.15v-3.15h.12l14.05,4.83v-3.33h-6.23v-2.95h6.23v-1.57h2.63Z"/>
        <path d="M614.24,752.95c1.22,0,2.17.36,2.86,1.08.69.72,1.04,1.7,1.04,2.92v6.31h-20.7v-6.31c0-1.23.35-2.2,1.05-2.92.7-.72,1.66-1.08,2.88-1.08h12.87ZM613.72,756.06h-11.89c-1.16,0-1.73.6-1.73,1.81v2.3h15.39v-2.22c0-1.26-.59-1.89-1.76-1.89Z"/>
        <path d="M616.25,740.37c1.26,0,1.89.63,1.89,1.89v6.46c0,1.23-.63,1.84-1.89,1.84h-16.91c-1.27,0-1.91-.61-1.91-1.84v-6.46c0-1.26.64-1.89,1.91-1.89h4.84v3.08h-4.09v4.01h15.39v-4.01h-4.35v-3.08h5.12Z"/>
      </g>
    </g></a>
    <a href="C3-4CES_4CC/index.html"><g id="_4CES" data-name="4CES">
      <rect id="_4CES-2" data-name="4CES" class="cls-3" x="643.58" y="721.77" width="34.43" height="133.92"/>
      <g id="_4CES-3" data-name="4CES">
        <path d="M664.86,830.04v1.57h3.9v2.95h-3.9v6.8h-1.84l-14.96-5.15v-3.15h.12l14.05,4.83v-3.33h-6.23v-2.95h6.23v-1.57h2.63Z"/>
        <path d="M666.87,818.07c1.26,0,1.89.63,1.89,1.89v6.46c0,1.23-.63,1.84-1.89,1.84h-16.91c-1.27,0-1.91-.61-1.91-1.84v-6.46c0-1.26.64-1.89,1.91-1.89h4.84v3.08h-4.09v4.01h15.39v-4.01h-4.35v-3.08h5.12Z"/>
        <path d="M668.77,807.05v8.59h-20.7v-8.51h2.74v5.41h6.05v-4.66h2.69v4.66h6.5v-5.49h2.74Z"/>
        <path d="M666.87,795.01c1.26,0,1.89.63,1.89,1.88v6.23c0,1.24-.63,1.87-1.89,1.87h-4.93v-3.1h4.22v-3.78h-4.06l-5.87,6.2c-.43.45-.98.67-1.65.67h-4.6c-1.27,0-1.91-.62-1.91-1.87v-6.23c0-1.25.63-1.88,1.88-1.88h4.63v3.1h-3.9v3.78h3.74l5.85-6.2c.42-.45.98-.67,1.68-.67h4.93Z"/>
        <path d="M673.53,783.87v2.99h-25.47v-2.99h25.47Z"/>
        <path d="M664.86,765.15v1.57h3.9v2.95h-3.9v6.8h-1.84l-14.96-5.15v-3.15h.12l14.05,4.83v-3.33h-6.23v-2.95h6.23v-1.57h2.63Z"/>
        <path d="M666.87,753.18c1.26,0,1.89.63,1.89,1.89v6.46c0,1.23-.63,1.84-1.89,1.84h-16.91c-1.27,0-1.91-.61-1.91-1.84v-6.46c0-1.26.64-1.89,1.91-1.89h4.84v3.08h-4.09v4.01h15.39v-4.01h-4.35v-3.08h5.12Z"/>
        <path d="M666.87,740.56c1.26,0,1.89.63,1.89,1.89v6.46c0,1.23-.63,1.84-1.89,1.84h-16.91c-1.27,0-1.91-.61-1.91-1.84v-6.46c0-1.26.64-1.89,1.91-1.89h4.84v3.08h-4.09v4.01h15.39v-4.01h-4.35v-3.08h5.12Z"/>
      </g>
    </g></a>
    <a href="C4-4VES_4VCS/index.html"><g id="_4VES" data-name="4VES">
      <rect id="_4VES-2" data-name="4VES" class="cls-3" x="694.09" y="721.77" width="34.43" height="133.92"/>
      <g id="_4VES-3" data-name="4VES">
        <path d="M715.37,830.04v1.57h3.9v2.95h-3.9v6.8h-1.84l-14.96-5.15v-3.15h.12l14.05,4.83v-3.33h-6.23v-2.95h6.23v-1.57h2.63Z"/>
        <path d="M698.57,817.95l20.73,3.97v3.08l-20.73,3.96v-3.11l14.19-2.31c.41-.02,1-.04,1.77-.08-.41,0-1-.02-1.77-.08l-14.19-2.33v-3.1Z"/>
        <path d="M719.27,807.62v8.59h-20.7v-8.51h2.74v5.41h6.05v-4.66h2.69v4.66h6.5v-5.49h2.74Z"/>
        <path d="M717.38,795.58c1.26,0,1.89.63,1.89,1.88v6.23c0,1.24-.63,1.87-1.89,1.87h-4.93v-3.1h4.22v-3.78h-4.06l-5.87,6.2c-.43.45-.98.67-1.65.67h-4.6c-1.27,0-1.91-.62-1.91-1.87v-6.23c0-1.25.63-1.88,1.88-1.88h4.63v3.1h-3.9v3.78h3.74l5.85-6.2c.42-.45.98-.67,1.68-.67h4.93Z"/>
        <path d="M724.04,784.44v2.99h-25.47v-2.99h25.47Z"/>
        <path d="M715.37,765.72v1.57h3.9v2.95h-3.9v6.8h-1.84l-14.96-5.15v-3.15h.12l14.05,4.83v-3.33h-6.23v-2.95h6.23v-1.57h2.63Z"/>
        <path d="M698.57,753.63l20.73,3.97v3.08l-20.73,3.96v-3.11l14.19-2.31c.41-.02,1-.04,1.77-.08-.41,0-1-.02-1.77-.08l-14.19-2.33v-3.1Z"/>
        <path d="M717.38,741.7c1.26,0,1.89.63,1.89,1.89v6.46c0,1.23-.63,1.84-1.89,1.84h-16.91c-1.27,0-1.91-.61-1.91-1.84v-6.46c0-1.26.63-1.89,1.91-1.89h4.84v3.08h-4.09v4.01h15.38v-4.01h-4.35v-3.08h5.12Z"/>
        <path d="M717.38,729.34c1.26,0,1.89.63,1.89,1.88v6.23c0,1.24-.63,1.87-1.89,1.87h-4.93v-3.1h4.22v-3.78h-4.06l-5.87,6.2c-.43.45-.98.67-1.65.67h-4.6c-1.27,0-1.91-.62-1.91-1.87v-6.23c0-1.25.63-1.88,1.88-1.88h4.63v3.1h-3.9v3.78h3.74l5.85-6.2c.42-.45.98-.67,1.68-.67h4.93Z"/>
      </g>
    </g></a>
    <a href="C4-4TES_4TCS/index.html"><g id="_4TES" data-name="4TES">
      <rect id="_4TES-2" data-name="4TES" class="cls-3" x="743.11" y="721.77" width="34.43" height="133.92"/>
      <g id="_4TES-3" data-name="4TES">
        <path d="M764.39,830.04v1.57h3.9v2.95h-3.9v6.8h-1.84l-14.96-5.15v-3.15h.12l14.05,4.83v-3.33h-6.23v-2.95h6.23v-1.57h2.63Z"/>
        <path d="M750.33,819.26v3.41h17.96v3.08h-17.96v3.41h-2.74v-9.91h2.74Z"/>
        <path d="M768.29,809.1v8.59h-20.7v-8.51h2.74v5.41h6.04v-4.66h2.69v4.66h6.5v-5.49h2.74Z"/>
        <path d="M766.4,797.06c1.26,0,1.89.63,1.89,1.88v6.23c0,1.24-.63,1.87-1.89,1.87h-4.93v-3.1h4.22v-3.78h-4.06l-5.87,6.2c-.43.45-.98.67-1.65.67h-4.6c-1.27,0-1.91-.62-1.91-1.87v-6.23c0-1.25.63-1.88,1.88-1.88h4.63v3.1h-3.9v3.78h3.74l5.85-6.2c.42-.45.98-.67,1.68-.67h4.93Z"/>
        <path d="M773.06,785.92v2.99h-25.47v-2.99h25.47Z"/>
        <path d="M764.39,767.2v1.57h3.9v2.95h-3.9v6.8h-1.84l-14.96-5.15v-3.15h.12l14.05,4.83v-3.33h-6.23v-2.95h6.23v-1.57h2.63Z"/>
        <path d="M750.33,756.42v3.41h17.96v3.08h-17.96v3.41h-2.74v-9.91h2.74Z"/>
        <path d="M766.4,744.66c1.26,0,1.89.63,1.89,1.89v6.46c0,1.23-.63,1.84-1.89,1.84h-16.91c-1.27,0-1.91-.61-1.91-1.84v-6.46c0-1.26.64-1.89,1.91-1.89h4.84v3.08h-4.09v4.01h15.39v-4.01h-4.35v-3.08h5.12Z"/>
        <path d="M766.4,732.3c1.26,0,1.89.63,1.89,1.88v6.23c0,1.24-.63,1.87-1.89,1.87h-4.93v-3.1h4.22v-3.78h-4.06l-5.87,6.2c-.43.45-.98.67-1.65.67h-4.6c-1.27,0-1.91-.62-1.91-1.87v-6.23c0-1.25.63-1.88,1.88-1.88h4.63v3.1h-3.9v3.78h3.74l5.85-6.2c.42-.45.98-.67,1.68-.67h4.93Z"/>
      </g>
    </g></a>
    <a href="C4-4PES_4PCS/index.html"><g id="_4PES" data-name="4PES">
      <rect id="_4PES-2" data-name="4PES" class="cls-3" x="793.6" y="721.77" width="34.43" height="133.92"/>
      <g id="_4PES-3" data-name="4PES">
        <path d="M814.88,830.04v1.57h3.9v2.95h-3.9v6.8h-1.84l-14.96-5.15v-3.15h.12l14.05,4.83v-3.33h-6.23v-2.95h6.23v-1.57h2.63Z"/>
        <path d="M809.35,818.25c1.29,0,1.93.63,1.93,1.89v5.01h7.5v3.1h-20.7v-8.11c0-1.26.63-1.89,1.91-1.89h9.37ZM808.63,821.37h-7.88v3.78h7.88v-3.78Z"/>
        <path d="M818.78,807.47v8.59h-20.7v-8.51h2.74v5.41h6.05v-4.66h2.69v4.66h6.5v-5.49h2.74Z"/>
        <path d="M816.89,795.43c1.26,0,1.89.63,1.89,1.88v6.23c0,1.24-.63,1.87-1.89,1.87h-4.93v-3.1h4.22v-3.78h-4.06l-5.87,6.2c-.43.45-.98.67-1.65.67h-4.6c-1.27,0-1.91-.62-1.91-1.87v-6.23c0-1.25.63-1.88,1.88-1.88h4.63v3.1h-3.9v3.78h3.74l5.85-6.2c.42-.45.98-.67,1.68-.67h4.93Z"/>
        <path d="M823.55,784.29v2.99h-25.47v-2.99h25.47Z"/>
        <path d="M814.88,765.57v1.57h3.9v2.95h-3.9v6.8h-1.84l-14.96-5.15v-3.15h.12l14.05,4.83v-3.33h-6.23v-2.95h6.23v-1.57h2.63Z"/>
        <path d="M809.35,753.79c1.29,0,1.93.63,1.93,1.89v5.01h7.5v3.1h-20.7v-8.11c0-1.26.63-1.89,1.91-1.89h9.37ZM808.63,756.91h-7.88v3.78h7.88v-3.78Z"/>
        <path d="M816.89,741.41c1.26,0,1.89.63,1.89,1.89v6.46c0,1.23-.63,1.84-1.89,1.84h-16.91c-1.27,0-1.91-.61-1.91-1.84v-6.46c0-1.26.63-1.89,1.91-1.89h4.84v3.08h-4.09v4.01h15.38v-4.01h-4.35v-3.08h5.12Z"/>
        <path d="M816.89,729.05c1.26,0,1.89.63,1.89,1.88v6.23c0,1.24-.63,1.87-1.89,1.87h-4.93v-3.1h4.22v-3.78h-4.06l-5.87,6.2c-.43.45-.98.67-1.65.67h-4.6c-1.27,0-1.91-.62-1.91-1.87v-6.23c0-1.25.63-1.88,1.88-1.88h4.63v3.1h-3.9v3.78h3.74l5.85-6.2c.42-.45.98-.67,1.68-.67h4.93Z"/>
      </g>
    </g></a>
    <a href="C4-4NES_4NCS/index.html"><g id="_4NES" data-name="4NES">
      <rect id="_4NES-2" data-name="4NES" class="cls-3" x="845.01" y="721.77" width="34.43" height="133.92"/>
      <g id="_4NES-3" data-name="4NES">
        <path d="M866.29,830.04v1.57h3.9v2.95h-3.9v6.8h-1.84l-14.96-5.15v-3.15h.12l14.05,4.83v-3.33h-6.23v-2.95h6.23v-1.57h2.63Z"/>
        <path d="M870.19,817.76v2.71l-13.03,4.96c.63-.13,1.13-.2,1.5-.2h11.54v3.02h-20.7v-2.71l12.77-4.96c-.63.13-1.13.2-1.49.2h-11.27v-3.02h20.7Z"/>
        <path d="M870.19,806.69v8.59h-20.7v-8.51h2.74v5.41h6.05v-4.66h2.69v4.66h6.5v-5.49h2.74Z"/>
        <path d="M868.3,794.65c1.26,0,1.89.63,1.89,1.88v6.23c0,1.24-.63,1.87-1.89,1.87h-4.93v-3.1h4.22v-3.78h-4.06l-5.87,6.2c-.43.45-.98.67-1.65.67h-4.6c-1.27,0-1.91-.62-1.91-1.87v-6.23c0-1.25.63-1.88,1.88-1.88h4.63v3.1h-3.9v3.78h3.74l5.85-6.2c.42-.45.98-.67,1.68-.67h4.93Z"/>
        <path d="M874.96,783.51v2.99h-25.47v-2.99h25.47Z"/>
        <path d="M866.29,764.79v1.57h3.9v2.95h-3.9v6.8h-1.84l-14.96-5.15v-3.15h.12l14.05,4.83v-3.33h-6.23v-2.95h6.23v-1.57h2.63Z"/>
        <path d="M870.19,752.52v2.71l-13.03,4.96c.63-.13,1.13-.2,1.5-.2h11.54v3.02h-20.7v-2.71l12.77-4.96c-.63.13-1.13.2-1.49.2h-11.27v-3.02h20.7Z"/>
        <path d="M868.3,739.84c1.26,0,1.89.63,1.89,1.89v6.46c0,1.23-.63,1.84-1.89,1.84h-16.91c-1.27,0-1.91-.61-1.91-1.84v-6.46c0-1.26.63-1.89,1.91-1.89h4.84v3.08h-4.09v4.01h15.38v-4.01h-4.35v-3.08h5.12Z"/>
        <path d="M868.3,727.49c1.26,0,1.89.63,1.89,1.88v6.23c0,1.24-.63,1.87-1.89,1.87h-4.93v-3.1h4.22v-3.78h-4.06l-5.87,6.2c-.43.45-.98.67-1.65.67h-4.6c-1.27,0-1.91-.62-1.91-1.87v-6.23c0-1.25.63-1.88,1.88-1.88h4.63v3.1h-3.9v3.78h3.74l5.85-6.2c.42-.45.98-.67,1.68-.67h4.93Z"/>
      </g>
    </g></a>
    <g id="_4JE" data-name="4JE">
      <rect id="_4JE-2" data-name="4JE" class="cls-3" x="895.47" y="721.77" width="34.43" height="133.92"/>
      <g id="_4JE-3" data-name="4JE">
        <path d="M919.14,830.04v1.57h3.9v2.95h-3.9v6.8h-1.84l-14.96-5.15v-3.15h.12l14.05,4.83v-3.33h-6.23v-2.95h6.23v-1.57h2.63Z"/>
        <path d="M921.15,818.95c1.26,0,1.89.64,1.89,1.91v5.87c0,1.24-.63,1.87-1.89,1.87h-5.09v-3.08h4.33v-3.47h-18.04v-3.1h18.81Z"/>
        <path d="M923.04,807.91v8.59h-20.7v-8.51h2.74v5.41h6.05v-4.66h2.69v4.66h6.5v-5.49h2.74Z"/>
      </g>
    </g>
    <g id="_4HE" data-name="4HE">
      <rect id="_4HE-2" data-name="4HE" class="cls-3" x="944.01" y="721.77" width="34.43" height="133.92"/>
      <g id="_4JE-4" data-name="4JE">
        <path d="M967.68,830.04v1.57h3.9v2.95h-3.9v6.8h-1.84l-14.96-5.15v-3.15h.12l14.05,4.83v-3.33h-6.23v-2.95h6.23v-1.57h2.63Z"/>
        <path d="M971.58,817.84v3.12h-9.29v4.19h9.29v3.1h-20.7v-3.1h8.53v-4.19h-8.53v-3.12h20.7Z"/>
        <path d="M971.58,806.8v8.59h-20.7v-8.51h2.74v5.41h6.05v-4.66h2.69v4.66h6.5v-5.49h2.74Z"/>
      </g>
    </g>
    <g id="_4GE" data-name="4GE">
      <rect id="_4GE-2" data-name="4GE" class="cls-3" x="995.32" y="721.77" width="34.43" height="133.92"/>
      <g id="_4GE-3" data-name="4GE">
        <path d="M1018.98,830.04v1.57h3.9v2.95h-3.9v6.8h-1.84l-14.96-5.15v-3.15h.12l14.05,4.83v-3.33h-6.23v-2.95h6.23v-1.57h2.63Z"/>
        <path d="M1020.99,818.01c1.26,0,1.89.63,1.89,1.89v6.51c0,1.23-.63,1.84-1.89,1.84h-16.91c-1.27,0-1.91-.63-1.91-1.88v-6.47c0-1.26.64-1.89,1.91-1.89h4.42v3.11h-3.67v4.04h15.39v-4.04h-5.79v2.3h-2.63v-5.41h9.19Z"/>
        <path d="M1022.89,806.95v8.59h-20.7v-8.51h2.74v5.41h6.04v-4.66h2.69v4.66h6.5v-5.49h2.74Z"/>
      </g>
    </g>
    <g id="_4FE" data-name="4FE">
      <rect id="_4FE-2" data-name="4FE" class="cls-3" x="1045.66" y="721.77" width="34.43" height="133.92"/>
      <g id="_4FE-3" data-name="4FE">
        <path d="M1069.33,830.04v1.57h3.9v2.95h-3.9v6.8h-1.84l-14.96-5.15v-3.15h.12l14.05,4.83v-3.33h-6.23v-2.95h6.23v-1.57h2.63Z"/>
        <path d="M1055.26,819.8v5.36h6.12v-4.58h2.69v4.58h9.15v3.1h-20.7v-8.45h2.74Z"/>
        <path d="M1073.23,809.46v8.59h-20.7v-8.51h2.74v5.41h6.05v-4.66h2.69v4.66h6.5v-5.49h2.74Z"/>
      </g>
    </g>
    <g id="_6JE" data-name="6JE">
      <rect id="_6JE-2" data-name="6JE" class="cls-3" x="1095.54" y="721.77" width="34.43" height="133.92"/>
      <path d="M1121.22,831.33c1.26,0,1.89.62,1.89,1.87v6.28c0,1.25-.63,1.88-1.89,1.88h-16.91c-1.27,0-1.9-.61-1.9-1.84v-6.27c0-1.24.63-1.87,1.9-1.87h4.38v3.04h-3.62v3.89h6.23v-5.12c0-1.24.62-1.87,1.87-1.87h8.06ZM1120.45,834.37h-6.52v3.96h6.52v-3.96Z"/>
      <path d="M1121.22,819.57c1.26,0,1.89.64,1.89,1.91v5.87c0,1.24-.63,1.87-1.89,1.87h-5.09v-3.08h4.33v-3.47h-18.04v-3.1h18.81Z"/>
      <path d="M1123.11,808.53v8.59h-20.7v-8.51h2.74v5.41h6.04v-4.66h2.69v4.66h6.5v-5.49h2.74Z"/>
    </g>
    <g id="_6HE" data-name="6HE">
      <rect id="_6HE-2" data-name="6HE" class="cls-3" x="1145.19" y="721.77" width="34.43" height="133.92"/>
      <g id="_6HE-3" data-name="6HE">
        <path d="M1170.87,831.33c1.26,0,1.89.62,1.89,1.87v6.28c0,1.25-.63,1.88-1.89,1.88h-16.91c-1.27,0-1.91-.61-1.91-1.84v-6.27c0-1.24.64-1.87,1.91-1.87h4.38v3.04h-3.62v3.89h6.23v-5.12c0-1.24.62-1.87,1.87-1.87h8.06ZM1170.1,834.37h-6.52v3.96h6.52v-3.96Z"/>
        <path d="M1172.76,818.46v3.12h-9.29v4.19h9.29v3.1h-20.7v-3.1h8.53v-4.19h-8.53v-3.12h20.7Z"/>
        <path d="M1172.76,807.42v8.59h-20.7v-8.51h2.74v5.41h6.04v-4.66h2.69v4.66h6.5v-5.49h2.74Z"/>
      </g>
    </g>
    <g id="_6GE" data-name="6GE">
      <rect id="_6GE-2" data-name="6GE" class="cls-3" x="1195.72" y="721.77" width="34.43" height="133.92"/>
      <g id="_6GE-3" data-name="6GE">
        <path d="M1221.39,831.33c1.26,0,1.89.62,1.89,1.87v6.28c0,1.25-.63,1.88-1.89,1.88h-16.91c-1.27,0-1.91-.61-1.91-1.84v-6.27c0-1.24.63-1.87,1.91-1.87h4.38v3.04h-3.62v3.89h6.23v-5.12c0-1.24.62-1.87,1.87-1.87h8.06ZM1220.63,834.37h-6.52v3.96h6.52v-3.96Z"/>
        <path d="M1221.39,818.64c1.26,0,1.89.63,1.89,1.89v6.51c0,1.23-.63,1.84-1.89,1.84h-16.91c-1.27,0-1.91-.63-1.91-1.88v-6.47c0-1.26.63-1.89,1.91-1.89h4.42v3.11h-3.66v4.04h15.38v-4.04h-5.79v2.3h-2.63v-5.41h9.19Z"/>
        <path d="M1223.29,807.58v8.59h-20.7v-8.51h2.74v5.41h6.05v-4.66h2.69v4.66h6.5v-5.49h2.74Z"/>
      </g>
    </g>
    <g id="_6FE" data-name="6FE">
      <rect id="_6FE-2" data-name="6FE" class="cls-3" x="1245.9" y="721.77" width="34.43" height="133.92"/>
      <g id="_6FE-3" data-name="6FE">
        <path d="M1271.58,831.33c1.26,0,1.89.62,1.89,1.87v6.28c0,1.25-.63,1.88-1.89,1.88h-16.91c-1.27,0-1.91-.61-1.91-1.84v-6.27c0-1.24.64-1.87,1.91-1.87h4.38v3.04h-3.62v3.89h6.23v-5.12c0-1.24.62-1.87,1.87-1.87h8.06ZM1270.81,834.37h-6.52v3.96h6.52v-3.96Z"/>
        <path d="M1255.51,820.42v5.36h6.12v-4.58h2.69v4.58h9.15v3.1h-20.7v-8.45h2.74Z"/>
        <path d="M1273.47,810.08v8.59h-20.7v-8.51h2.74v5.41h6.04v-4.66h2.69v4.66h6.5v-5.49h2.74Z"/>
      </g>
    </g>
    <g id="_8GE" data-name="8GE">
      <rect id="_8GE-2" data-name="8GE" class="cls-3" x="1294.33" y="721.77" width="34.43" height="133.92"/>
      <g id="_8GE-3" data-name="8GE">
        <path d="M1320.01,831.12c1.26,0,1.89.62,1.89,1.87v6.54c0,1.23-.63,1.84-1.89,1.84h-6.02c-.77,0-1.35-.26-1.76-.77-.35-.61-.71-1.22-1.06-1.84-.34.59-.69,1.18-1.03,1.77-.42.54-.99.81-1.71.81h-5.33c-1.27,0-1.91-.63-1.91-1.88v-6.44c0-1.23.63-1.84,1.91-1.84h5.33c.72,0,1.29.26,1.71.79.34.59.69,1.18,1.03,1.77.35-.61.71-1.22,1.06-1.84.41-.52.99-.78,1.76-.78h6.02ZM1308.76,834.23h-4.96v4.01h4.96l1.19-2-1.19-2.01ZM1319.29,834.21h-5.74l-1.16,2.04,1.16,2.05h5.74v-4.09Z"/>
        <path d="M1320.01,818.38c1.26,0,1.89.63,1.89,1.89v6.51c0,1.23-.63,1.84-1.89,1.84h-16.91c-1.27,0-1.91-.63-1.91-1.88v-6.47c0-1.26.63-1.89,1.91-1.89h4.42v3.11h-3.66v4.04h15.38v-4.04h-5.79v2.3h-2.63v-5.41h9.19Z"/>
        <path d="M1321.9,807.33v8.59h-20.7v-8.51h2.74v5.41h6.05v-4.66h2.69v4.66h6.5v-5.49h2.74Z"/>
      </g>
    </g>
    <g id="_8FE" data-name="8FE">
      <rect id="_8FE-2" data-name="8FE" class="cls-3" x="1344.96" y="721.77" width="34.43" height="133.92"/>
      <g id="_8FE-3" data-name="8FE">
        <path d="M1370.64,831.12c1.26,0,1.89.62,1.89,1.87v6.54c0,1.23-.63,1.84-1.89,1.84h-6.02c-.77,0-1.35-.26-1.76-.77-.35-.61-.71-1.22-1.06-1.84-.34.59-.69,1.18-1.03,1.77-.42.54-.99.81-1.71.81h-5.33c-1.27,0-1.91-.63-1.91-1.88v-6.44c0-1.23.64-1.84,1.91-1.84h5.33c.72,0,1.29.26,1.71.79.34.59.69,1.18,1.03,1.77.35-.61.71-1.22,1.06-1.84.41-.52.99-.78,1.76-.78h6.02ZM1359.39,834.23h-4.96v4.01h4.96l1.19-2-1.19-2.01ZM1369.92,834.21h-5.74l-1.16,2.04,1.16,2.05h5.74v-4.09Z"/>
        <path d="M1354.56,820.17v5.36h6.12v-4.58h2.69v4.58h9.15v3.1h-20.7v-8.45h2.74Z"/>
        <path d="M1372.53,809.83v8.59h-20.7v-8.51h2.74v5.41h6.04v-4.66h2.69v4.66h6.5v-5.49h2.74Z"/>
      </g>
    </g>
  </g>
  <g id="Colunas">
    <rect class="cls-2" x="98.57" y="709.34" width="22.11" height="12.33"/>
    <rect class="cls-2" x="148.71" y="708.07" width="22.11" height="13.6"/>
    <rect class="cls-2" x="198.86" y="703.86" width="22.11" height="17.8"/>
    <rect class="cls-2" x="249.01" y="703.86" width="22.11" height="17.8"/>
    <rect class="cls-2" x="299.16" y="697.89" width="22.11" height="23.77"/>
    <rect class="cls-2" x="349.31" y="691.98" width="22.11" height="29.69"/>
    <rect class="cls-2" x="399.46" y="688.19" width="22.11" height="33.47"/>
    <rect class="cls-2" x="449.6" y="681.8" width="22.11" height="39.86"/>
    <rect class="cls-2" x="499.75" y="674.89" width="22.11" height="46.78"/>
    <rect class="cls-2" x="549.9" y="661.98" width="22.11" height="59.69"/>
    <rect class="cls-2" x="600.05" y="652.32" width="22.11" height="69.34"/>
    <rect class="cls-2" x="650.2" y="638.76" width="22.11" height="82.91"/>
    <rect class="cls-2" x="700.34" y="629.5" width="22.11" height="92.17"/>
    <rect class="cls-2" x="750.49" y="612.61" width="22.11" height="109.06"/>
    <rect class="cls-2" x="800.64" y="591.35" width="22.11" height="130.32"/>
    <rect class="cls-2" x="850.79" y="571.1" width="22.11" height="150.57"/>
    <rect class="cls-2" x="900.94" y="553.39" width="22.11" height="168.28"/>
    <rect class="cls-2" x="951.09" y="524.95" width="22.11" height="196.71"/>
    <rect class="cls-2" x="1001.23" y="497.92" width="22.11" height="223.74"/>
    <rect class="cls-2" x="1051.38" y="448" width="22.11" height="273.67"/>
    <rect class="cls-2" x="1101.53" y="468.44" width="22.11" height="253.22"/>
    <rect class="cls-2" x="1151.68" y="429.31" width="22.11" height="292.35"/>
    <rect class="cls-2" x="1201.83" y="386.66" width="22.11" height="335.01"/>
    <rect class="cls-2" x="1251.97" y="313.49" width="22.11" height="408.18"/>
    <rect class="cls-2" x="1302.12" y="228.96" width="22.11" height="492.7"/>
    <rect class="cls-2" x="1352.27" y="146.01" width="22.11" height="575.66"/>
  </g>
  <g id="Background">
    <g id="LateralInfo">
      <path d="M69.79,681.4c0,.66-.21,1.19-.64,1.6-.43.41-.97.62-1.62.62h-8.32c-.65,0-1.19-.21-1.6-.62s-.62-.95-.62-1.6v-26.91c0-.65.21-1.19.62-1.6s.95-.62,1.6-.62h8.32c.65,0,1.2.21,1.62.62.43.41.64.95.64,1.6v26.91ZM67,681.16v-26.43h-7.23v26.43h7.23Z"/>
      <g>
        <path d="M46.61,548.1c0,.66-.21,1.19-.62,1.6s-.95.62-1.6.62h-7.71c-.65,0-1.19-.21-1.59-.62-.41-.41-.61-.95-.61-1.6v-7.96h2.79v7.71h6.57v-14.77h-9.28l.36-14.13h11.46v2.46h-8.74l-.34,9.2h7.09c.65,0,1.19.21,1.6.62s.62.95.62,1.6v15.25Z"/>
        <path d="M64.23,548.1c0,.66-.21,1.19-.64,1.6-.43.41-.97.62-1.62.62h-8.32c-.65,0-1.19-.21-1.6-.62s-.62-.95-.62-1.6v-26.91c0-.65.21-1.19.62-1.6s.95-.62,1.6-.62h8.32c.65,0,1.2.21,1.62.62.43.41.64.95.64,1.6v26.91ZM61.44,547.86v-26.43h-7.23v26.43h7.23Z"/>
      </g>
      <g>
        <path d="M20.85,420.02h-2.81v-21.74h-1.22v-.1l1.76-9.52h2.26v31.36Z"/>
        <path d="M38.86,417.79c0,.66-.21,1.19-.64,1.6-.43.41-.97.62-1.62.62h-8.32c-.65,0-1.19-.21-1.6-.62s-.62-.95-.62-1.6v-26.91c0-.65.21-1.19.62-1.6s.95-.62,1.6-.62h8.32c.65,0,1.2.21,1.62.62.43.41.64.95.64,1.6v26.91ZM36.08,417.55v-26.43h-7.23v26.43h7.23Z"/>
        <path d="M56.68,417.79c0,.66-.21,1.19-.64,1.6-.43.41-.97.62-1.62.62h-8.32c-.65,0-1.19-.21-1.6-.62s-.62-.95-.62-1.6v-26.91c0-.65.21-1.19.62-1.6s.95-.62,1.6-.62h8.32c.65,0,1.2.21,1.62.62.43.41.64.95.64,1.6v26.91ZM53.89,417.55v-26.43h-7.23v26.43h7.23Z"/>
      </g>
      <g>
        <path d="M19.34,291.67h-2.81v-21.74h-1.22v-.1l1.76-9.52h2.26v31.36Z"/>
        <path d="M36.61,289.45c0,.66-.21,1.19-.62,1.6s-.95.62-1.6.62h-7.71c-.65,0-1.19-.21-1.59-.62-.41-.41-.61-.95-.61-1.6v-7.96h2.79v7.71h6.57v-14.77h-9.28l.36-14.13h11.46v2.46h-8.74l-.34,9.2h7.09c.65,0,1.19.21,1.6.62s.62.95.62,1.6v15.25Z"/>
        <path d="M54.22,289.45c0,.66-.21,1.19-.64,1.6-.43.41-.97.62-1.62.62h-8.32c-.65,0-1.19-.21-1.6-.62s-.62-.95-.62-1.6v-26.91c0-.65.21-1.19.62-1.6s.95-.62,1.6-.62h8.32c.65,0,1.2.21,1.62.62.43.41.64.95.64,1.6v26.91ZM51.44,289.21v-26.43h-7.23v26.43h7.23Z"/>
      </g>
      <g>
        <path d="M26.36,164.89h-12.44v-1.48l9.6-19.94v-7.47h-6.39v7.05h-2.81v-7.29c0-.65.21-1.19.62-1.6s.95-.62,1.6-.62h7.55c.65,0,1.19.21,1.6.62.41.41.62.95.62,1.6v6.65c0,.8-.25,1.72-.74,2.75l-8.3,17.27h9.08v2.46Z"/>
        <path d="M43.52,162.66c0,.66-.21,1.19-.64,1.6-.43.41-.97.62-1.62.62h-8.32c-.65,0-1.19-.21-1.6-.62s-.62-.95-.62-1.6v-26.91c0-.65.21-1.19.62-1.6s.95-.62,1.6-.62h8.32c.65,0,1.2.21,1.62.62.43.41.64.95.64,1.6v26.91ZM40.73,162.42v-26.43h-7.23v26.43h7.23Z"/>
        <path d="M61.33,162.66c0,.66-.21,1.19-.64,1.6-.43.41-.97.62-1.62.62h-8.32c-.65,0-1.19-.21-1.6-.62s-.62-.95-.62-1.6v-26.91c0-.65.21-1.19.62-1.6s.95-.62,1.6-.62h8.32c.65,0,1.2.21,1.62.62.43.41.64.95.64,1.6v26.91ZM58.55,162.42v-26.43h-7.23v26.43h7.23Z"/>
      </g>
      <g>
        <path d="M27.6,46.32h-12.44v-1.48l9.6-19.94v-7.47h-6.39v7.05h-2.81v-7.29c0-.65.21-1.19.62-1.6s.95-.62,1.6-.62h7.55c.65,0,1.19.21,1.6.62.41.41.62.95.62,1.6v6.65c0,.8-.25,1.72-.74,2.75l-8.3,17.27h9.08v2.46Z"/>
        <path d="M44.01,44.1c0,.66-.21,1.19-.62,1.6s-.95.62-1.6.62h-7.71c-.65,0-1.19-.21-1.59-.62-.41-.41-.61-.95-.61-1.6v-7.96h2.79v7.71h6.57v-14.77h-9.28l.36-14.13h11.46v2.46h-8.74l-.34,9.2h7.09c.65,0,1.19.21,1.6.62s.62.95.62,1.6v15.25Z"/>
        <path d="M61.62,44.1c0,.66-.21,1.19-.64,1.6-.43.41-.97.62-1.62.62h-8.32c-.65,0-1.19-.21-1.6-.62s-.62-.95-.62-1.6v-26.91c0-.65.21-1.19.62-1.6s.95-.62,1.6-.62h8.32c.65,0,1.2.21,1.62.62.43.41.64.95.64,1.6v26.91ZM58.84,43.86v-26.43h-7.23v26.43h7.23Z"/>
      </g>
      <g>
        <path d="M114.94,41.56c0,1.39-.46,2.53-1.37,3.42-.91.89-2.07,1.34-3.46,1.34h-6.02v-26.33h6.02c1.4,0,2.56.45,3.47,1.34.91.89,1.36,2.03,1.36,3.42v16.81ZM112.6,41.33v-16.37c0-.86-.27-1.56-.82-2.09-.54-.53-1.25-.8-2.11-.8h-3.25v22.2h3.11c.91,0,1.65-.26,2.21-.78.57-.52.85-1.24.85-2.15Z"/>
        <path d="M127.93,44.42c0,1.27-.63,1.9-1.88,1.9h-5.38c-1.26,0-1.88-.63-1.88-1.9v-12.57c0-1.27.63-1.9,1.88-1.9h5.38c1.26,0,1.88.63,1.88,1.9v5.89l-.76.79h-6.23v5.92h4.81v-3h2.17v2.96ZM125.76,36.75v-4.93h-4.81v4.93h4.81Z"/>
        <path d="M140.45,44.42c0,1.27-.63,1.9-1.9,1.9h-5.13c-1.27,0-1.9-.63-1.9-1.9v-3.72h2.2v3.69h4.53v-3.26l-5.86-4.8c-.56-.45-.84-1.03-.84-1.75v-2.73c0-1.27.63-1.9,1.9-1.9h5.07c1.27,0,1.9.63,1.9,1.9v3.26h-2.17v-3.23h-4.53v2.86l5.91,4.8c.55.44.82,1.03.82,1.78v3.1Z"/>
        <path d="M146.34,46.32h-2.2v-26.33h2.2v26.33Z"/>
        <path d="M159.55,44.42c0,1.27-.63,1.9-1.9,1.9h-5.62c-1.26,0-1.88-.63-1.88-1.9v-12.57c0-1.27.63-1.9,1.88-1.9h5.62c1.27,0,1.9.63,1.9,1.9v12.57ZM157.32,44.35v-12.44h-4.93v12.44h4.93Z"/>
        <path d="M172.29,44.42c0,1.27-.63,1.9-1.88,1.9h-5.32c-1.26,0-1.88-.63-1.88-1.9v-12.57c0-1.27.63-1.9,1.88-1.9h5.32c1.26,0,1.88.63,1.88,1.9v3.26h-2.2v-3.2h-4.64v12.44h4.64v-3.65h2.2v3.72Z"/>
        <path d="M185.18,46.32h-2.2v-.45c-.89.12-1.77.24-2.66.35-1.1.13-1.98.2-2.64.2-1.22,0-1.83-.61-1.83-1.82v-5.97c0-1.26.63-1.88,1.9-1.88h5.27v-4.93h-4.81v2.79h-2.17v-2.76c0-1.27.63-1.9,1.88-1.9h5.38c1.26,0,1.88.63,1.88,1.9v14.47ZM183.01,44.29v-5.79h-5v5.89l5-.1Z"/>
        <path d="M205.31,46.32h-2.24v-14.37l-4.88.13v14.24h-2.22v-14.37l-4.88.13v14.24h-2.24v-16.37h2.24v.45c.88-.11,1.75-.23,2.62-.35,1.07-.13,1.95-.2,2.64-.2s1.19.21,1.51.62c.94-.12,1.88-.25,2.81-.39,1.22-.16,2.15-.24,2.78-.24,1.23,0,1.85.61,1.85,1.83v14.64Z"/>
        <path d="M218.1,44.42c0,1.27-.63,1.9-1.88,1.9h-5.38c-1.26,0-1.88-.63-1.88-1.9v-12.57c0-1.27.63-1.9,1.88-1.9h5.38c1.26,0,1.88.63,1.88,1.9v5.89l-.76.79h-6.23v5.92h4.81v-3h2.17v2.96ZM215.93,36.75v-4.93h-4.81v4.93h4.81Z"/>
        <path d="M231.21,46.32h-2.24v-14.37l-4.93.13v14.24h-2.24v-16.37h2.24v.45c.88-.11,1.76-.23,2.64-.35,1.08-.13,1.96-.2,2.66-.2,1.25,0,1.87.61,1.87,1.83v14.64Z"/>
        <path d="M240.71,46.32h-3.18c-1.26,0-1.88-.63-1.88-1.9v-12.5h-1.97v-1.97h1.97v-5.1h2.2v5.1h2.86v1.97h-2.86v12.44h2.86v1.97Z"/>
        <path d="M252.98,44.42c0,1.27-.63,1.9-1.9,1.9h-5.62c-1.26,0-1.88-.63-1.88-1.9v-12.57c0-1.27.63-1.9,1.88-1.9h5.62c1.27,0,1.9.63,1.9,1.9v12.57ZM250.74,44.35v-12.44h-4.93v12.44h4.93Z"/>
      </g>
      <g>
        <path d="M120.96,89.83h-2.24v-14.37l-4.88.13v14.24h-2.22v-14.37l-4.88.13v14.24h-2.24v-16.37h2.24v.45c.88-.11,1.75-.23,2.62-.35,1.07-.13,1.95-.2,2.64-.2s1.19.21,1.51.62c.94-.12,1.88-.25,2.81-.39,1.22-.16,2.15-.24,2.78-.24,1.23,0,1.85.61,1.85,1.83v14.64Z"/>
        <path d="M132.24,74.89c0,.54-.17,1.01-.5,1.41-.33.4-.76.6-1.29.6h-4.49c-1.33,0-2-.68-2-2.04v-2.19h1.94v2.39h4.41v-2.69l-3.08-1.9v-1.13l2.84-1.67v-2.29h-3.84v2.17h-2.04v-1.88c0-1.45.71-2.17,2.14-2.17h3.75c1.27,0,1.9.62,1.9,1.87v1.97c0,.63-.26,1.16-.79,1.58-.54.34-1.08.67-1.63.99.62.37,1.23.74,1.83,1.11.56.44.84,1.03.84,1.77v2.1Z"/>
        <path d="M147.54,63.65l-11.14,26.18h-2.24v-.13l11.14-26.2h2.24v.15Z"/>
        <path d="M159.53,89.83h-2.24v-14.37l-4.93.13v14.24h-2.24v-26.33h2.24v10.42c.89-.11,1.77-.22,2.66-.34,1.12-.15,2-.22,2.64-.22,1.25,0,1.87.61,1.87,1.83v14.64Z"/>
        <path d="M176.02,93.22h-2.04c-2.78-4.52-4.17-9.47-4.17-14.86s1.39-10.34,4.17-14.86h2.04v.19c-1.37,2.48-2.35,4.83-2.94,7.07-.61,2.29-.91,4.82-.91,7.61s.3,5.32.91,7.61c.59,2.23,1.58,4.59,2.94,7.07v.19Z"/>
        <path d="M189.37,87.97c0,.55-.17,1-.52,1.35s-.8.52-1.35.52h-6.48c-.55,0-1-.17-1.34-.52s-.51-.8-.51-1.35v-6.68h2.34v6.48h5.52v-12.4h-7.79l.3-11.86h9.63v2.07h-7.34l-.29,7.72h5.96c.55,0,1,.17,1.35.52.35.35.52.8.52,1.35v12.81Z"/>
        <path d="M204.16,87.97c0,.55-.18,1-.54,1.35-.36.35-.81.52-1.36.52h-6.98c-.55,0-1-.17-1.35-.52s-.52-.8-.52-1.35v-22.6c0-.55.17-1,.52-1.35s.8-.52,1.35-.52h6.98c.55,0,1,.17,1.36.52.36.35.54.8.54,1.35v22.6ZM201.82,87.76v-22.2h-6.07v22.2h6.07Z"/>
        <path d="M219.39,89.83h-2.34v-12.65h-6.34v12.65h-2.34v-26.33h2.34v11.58h6.34v-11.58h2.34v26.33Z"/>
        <path d="M231.17,89.83h-8.62v-1.03l5.97-13.34h-5.35v-2h7.99v1.04l-5.99,13.33h5.99v2Z"/>
        <path d="M239.82,78.36c0,5.38-1.39,10.34-4.17,14.86h-1.99v-.19c1.37-2.48,2.34-4.83,2.93-7.07.62-2.29.93-4.82.93-7.61s-.31-5.32-.93-7.61c-.58-2.23-1.56-4.59-2.93-7.07v-.19h1.99c2.78,4.52,4.17,9.47,4.17,14.86Z"/>
      </g>
    </g>
    <g id="Grade">
      <rect class="cls-1" x="86.24" y="54.83" width="249" height="666.84"/>
      <rect class="cls-1" x="335.24" y="54.83" width="149.22" height="666.84"/>
      <rect class="cls-1" x="485.21" y="54.83" width="199.47" height="666.84"/>
      <rect class="cls-1" x="685.55" y="54.83" width="199.32" height="666.84"/>
      <rect class="cls-1" x="885.83" y="54.83" width="199.32" height="666.84"/>
      <rect class="cls-1" x="1085.04" y="54.83" width="201.85" height="666.84"/>
      <rect class="cls-1" x="1286.78" y="54.83" width="100.93" height="666.84"/>
      <rect class="cls-1" x="86.24" y="54.23" width="1301.46" height="133.18"/>
      <rect class="cls-1" x="86.24" y="187.41" width="1301.46" height="133.18"/>
      <rect class="cls-1" x="86.24" y="321.36" width="1301.46" height="133.18"/>
      <rect class="cls-1" x="86.24" y="454.6" width="1301.46" height="130.05"/>
      <rect class="cls-1" x="86.24" y="584.65" width="1301.46" height="136.37"/>
    </g>
  </g>
  <g id="Motores">
    <g>
      <path class="cls-4" d="M209.75,631.17c0,1.77-.88,2.65-2.65,2.65h-9.05c-1.72,0-2.58-.88-2.58-2.65v-23.71c0-1.78.86-2.67,2.58-2.67h9.05c1.77,0,2.65.89,2.65,2.67v6.79h-4.32v-5.73h-5.62v21.58h5.62v-6.1h4.32v7.18Z"/>
      <path class="cls-4" d="M225.21,633.83h-12.04v-29.04h11.93v3.84h-7.59v8.48h6.53v3.77h-6.53v9.11h7.7v3.84Z"/>
      <path class="cls-4" d="M233.43,633.83h-4.27v-20.48h-1.67v-.58l2.25-7.98h3.69v29.04Z"/>
    </g>
    <g>
      <path class="cls-4" d="M388.6,631.6c0,1.77-.88,2.65-2.65,2.65h-9.05c-1.72,0-2.58-.88-2.58-2.65v-23.71c0-1.78.86-2.67,2.58-2.67h9.05c1.77,0,2.65.89,2.65,2.67v6.79h-4.32v-5.73h-5.62v21.58h5.62v-6.1h4.32v7.18Z"/>
      <path class="cls-4" d="M404.05,634.25h-12.04v-29.04h11.93v3.84h-7.59v8.48h6.53v3.77h-6.53v9.11h7.7v3.84Z"/>
      <path class="cls-4" d="M420.66,613.47c0,.92-.32,1.93-.95,3.04l-7.98,13.93h8.89v3.8h-14.08v-2.69l9.83-17.29v-5.36h-5.29v5.4h-4.25v-6.46c0-1.76.88-2.63,2.65-2.63h8.52c1.77,0,2.65.88,2.65,2.63v5.62Z"/>
    </g>
    <g>
      <path class="cls-4" d="M561.16,536.8c0,1.77-.88,2.65-2.65,2.65h-9.05c-1.72,0-2.58-.88-2.58-2.65v-23.71c0-1.78.86-2.67,2.58-2.67h9.05c1.77,0,2.65.89,2.65,2.67v6.79h-4.32v-5.73h-5.62v21.58h5.62v-6.1h4.32v7.18Z"/>
      <path class="cls-4" d="M576.62,539.45h-12.04v-29.04h11.93v3.84h-7.59v8.48h6.53v3.77h-6.53v9.11h7.7v3.84Z"/>
      <path class="cls-4" d="M593.69,536.8c0,1.77-.87,2.65-2.62,2.65h-8.91c-1.72,0-2.58-.88-2.58-2.65v-6.7h4.27v5.62h5.58v-7.29l-5.33-3.66v-.91l5.33-3.6v-6.12h-5.58v5.29h-4.27v-6.35c0-1.78.88-2.67,2.63-2.67h8.85c1.74,0,2.62.89,2.62,2.67v6.83c0,1.15-.48,2.04-1.45,2.67l-2.69,1.74,2.73,1.71c.94.58,1.41,1.45,1.41,2.62v8.15Z"/>
    </g>
    <g>
      <path class="cls-4" d="M765.1,521.15c0,1.72-.86,2.58-2.58,2.58h-8.82c-1.67,0-2.51-.86-2.51-2.58v-23.09c0-1.73.84-2.6,2.51-2.6h8.82c1.72,0,2.58.87,2.58,2.6v6.61h-4.21v-5.58h-5.47v21.01h5.47v-5.94h4.21v6.99Z"/>
      <path class="cls-4" d="M780.15,523.73h-11.73v-28.27h11.62v3.74h-7.39v8.26h6.36v3.67h-6.36v8.87h7.5v3.74Z"/>
      <path class="cls-4" d="M797.44,518.4h-2.15v5.33h-4.03v-5.33h-9.29v-2.51l7.03-20.43h4.3v.16l-6.59,19.19h4.55v-8.51h4.03v8.51h2.15v3.59Z"/>
    </g>
    <g>
      <path class="cls-4" d="M963.57,400.97c0,1.63-.82,2.44-2.44,2.44h-10.68v-26.75h10.61c1.58,0,2.38.82,2.38,2.46v6.89c0,.91-.29,1.62-.85,2.12-.08.07-.78.51-2.08,1.32,1.36.83,2.07,1.29,2.15,1.37.62.54.92,1.27.92,2.21v7.95ZM959.45,386.51v-6.48h-5.01v7.84h3.08l1.93-1.37ZM959.55,400.04v-7.62l-1.96-1.3h-3.14v8.92h5.11Z"/>
      <path class="cls-4" d="M977.8,403.41h-11.09v-26.75h10.99v3.54h-6.99v7.81h6.02v3.47h-6.02v8.39h7.09v3.54Z"/>
      <path class="cls-4" d="M993.32,400.97c0,1.63-.81,2.44-2.43,2.44h-8.01c-1.58,0-2.38-.81-2.38-2.44v-6.17h3.93v5.18h4.96v-10.29h-8.89l.43-13.02h12.2v3.5h-8.49l-.26,6.08h6.51c1.62,0,2.43.81,2.43,2.43v12.29Z"/>
    </g>
    <g>
      <path class="cls-4" d="M1173.97,316.15c0,1.63-.81,2.44-2.44,2.44h-10.68v-26.75h10.61c1.58,0,2.38.82,2.38,2.46v6.89c0,.91-.29,1.62-.85,2.12-.08.07-.77.51-2.08,1.32,1.36.83,2.07,1.29,2.15,1.37.62.54.92,1.27.92,2.21v7.95ZM1169.85,301.69v-6.48h-5.01v7.84h3.08l1.93-1.37ZM1169.95,315.22v-7.62l-1.97-1.3h-3.14v8.92h5.11Z"/>
      <path class="cls-4" d="M1188.2,318.59h-11.09v-26.75h10.99v3.54h-6.99v7.81h6.02v3.47h-6.02v8.39h7.09v3.54Z"/>
      <path class="cls-4" d="M1203.89,316.15c0,1.63-.8,2.44-2.41,2.44h-8.12c-1.62,0-2.43-.81-2.43-2.44v-21.84c0-1.64.79-2.46,2.37-2.46h8.1c1.61,0,2.41.82,2.41,2.46v5.66h-3.93v-4.68h-5.02v8.05h6.61c1.61,0,2.41.8,2.41,2.41v10.41ZM1199.98,315.15v-8.42h-5.11v8.42h5.11Z"/>
    </g>
    <g>
      <path class="cls-4" d="M1313.43,181.23c0,1.72-.86,2.58-2.58,2.58h-8.82c-1.67,0-2.51-.86-2.51-2.58v-23.09c0-1.73.84-2.6,2.51-2.6h8.82c1.72,0,2.58.87,2.58,2.6v6.61h-4.21v-5.58h-5.47v21.01h5.47v-5.94h4.21v6.99Z"/>
      <path class="cls-4" d="M1328.48,183.82h-11.72v-28.27h11.62v3.74h-7.39v8.26h6.36v3.67h-6.36v8.87h7.5v3.74Z"/>
      <path class="cls-4" d="M1345.32,181.23c0,1.72-.85,2.58-2.55,2.58h-8.92c-1.67,0-2.51-.86-2.51-2.58v-8.22c0-1.05.35-1.85,1.05-2.4.83-.48,1.67-.96,2.51-1.45-.81-.47-1.61-.94-2.42-1.41-.74-.58-1.1-1.36-1.1-2.33v-7.28c0-1.73.86-2.6,2.57-2.6h8.8c1.67,0,2.51.87,2.51,2.6v7.28c0,.99-.36,1.76-1.08,2.33-.81.47-1.61.94-2.42,1.41.83.48,1.67.96,2.51,1.45.71.55,1.07,1.36,1.07,2.4v8.22ZM1341.11,180.26v-7.84l-2.78-1.59-2.8,1.59v7.84h5.58ZM1341.07,165.88v-6.78h-5.47v6.78l2.73,1.62,2.75-1.62Z"/>
    </g>
    <image width="507" height="388" transform="translate(146.1 468.45) scale(.27)" xlink:href="images/Tabela Compressores-1.png"/>
    <image width="495" height="383" transform="translate(343.62 203.88) scale(.28)" xlink:href="images/Tabela Compressores-2.png"/>
    <image width="484" height="405" transform="translate(495.13 323.94) scale(.31)" xlink:href="images/Tabela Compressores-3.png"/>
    <image width="511" height="364" transform="translate(689.37 190.71) scale(.35)" xlink:href="images/Tabela Compressores-4.png"/>
    <image width="497" height="348" transform="translate(884.83 193.6) scale(.36)" xlink:href="images/Tabela Compressores-5.png"/>
    <image width="498" height="300" transform="translate(1089.47 178.12) scale(.37)" xlink:href="images/Tabela Compressores-6.png"/>
    <image width="508" height="302" transform="translate(1211.23 45.89) scale(.36)" xlink:href="images/Tabela Compressores-7.png"/>
  </g>
</svg>